# xmcd
#
# Track frame offsets: 
#        150
#        12699
#        26847
#        35605
#        48389
#        60878
#        74520
#        86913
#        101056
#        114589
#        124419
#        136870
#        154606
#        165724
#        174203
#
# Disc length: 2473 seconds
#
# Revision: 0
# Processed by: cddbd v1.5.2PL0 Copyright (c) Steve Scherf et al.
# Submitted via: ExactAudioCopy v1.3
#
DISCID=cd09a70f
DTITLE=Various Artist - Simply Country - CD8
DYEAR=2012
DGENRE=Country
TTITLE0=Lynn Anderson - Stand By Your Man
TTITLE1=Hoyt Axton - Lonesome Road
TTITLE2=Bill Hughes and His Pals Of The Pecos - I'm Telling You
TTITLE3=Freddy Fender - Since I Met You Baby
TTITLE4=Milton Brown and His Musical Brownies - Texas Hambone Blues
TTITLE5=Flatt and Scruggs - Earl's Breakdown
TTITLE6=Hank Williams - Cold, Cold Heart
TTITLE7=Lefty Frizzell - Always Late
TTITLE8=Bill Monroe and His Bluegrass Boys - Bluegrass Stomp
TTITLE9=Johnny Cash - Lovesick Blues
TTITLE10=Billie Jo Spears - The Cheating Kind
TTITLE11=Kenny Rogers - Something's Burning
TTITLE12=Pee Wee King and His Golden West Cowboys - 49 Women
TTITLE13=Johnny Cash - Country Boy
TTITLE14=Patsy Cline - Just Out Of Reach
EXTD=
EXTT0=
EXTT1=
EXTT2=
EXTT3=
EXTT4=
EXTT5=
EXTT6=
EXTT7=
EXTT8=
EXTT9=
EXTT10=
EXTT11=
EXTT12=
EXTT13=
EXTT14=
PLAYORDER=
